<svg width="390" height="142" viewBox="0 0 390 142" fill="none" xmlns="http://www.w3.org/2000/svg">
<g filter="url(#filter0_d_169:902)">
<rect x="-41" y="36" width="442" height="46.1765" fill="#23A892"/>
<ellipse cx="180" cy="81.2941" rx="221" ry="24.7059" fill="#23A892"/>
</g>
<g filter="url(#filter1_d_169:902)">
<path fill-rule="evenodd" clip-rule="evenodd" d="M104.687 36C112.035 70.2907 142.515 96 179 96C215.485 96 245.965 70.2907 253.313 36H104.687Z" fill="#FFBD0F"/>
</g>
<g filter="url(#filter2_d_169:902)">
<path d="M149.608 70.572C147.848 70.572 146.059 69.7947 144.24 68.24L143.888 70H137.552L143.536 42.016L150.048 41.136L144.768 65.82C145.589 66.4067 146.425 66.7 147.276 66.7C148.948 66.7 150.415 65.732 151.676 63.796C152.967 61.86 153.964 59.396 154.668 56.404C155.372 53.412 155.724 50.3907 155.724 47.34C155.724 44.4653 155.152 42.368 154.008 41.048C152.893 39.6987 151.324 39.024 149.3 39.024C147.1 39.024 145.12 39.464 143.36 40.344C141.629 41.1947 140.265 42.4267 139.268 44.04C138.271 45.6533 137.772 47.5453 137.772 49.716C137.772 50.8013 137.875 51.564 138.08 52.004C138.285 52.4147 138.388 52.6493 138.388 52.708C136.863 52.708 135.689 52.3853 134.868 51.74C134.076 51.0947 133.68 50.0533 133.68 48.616C133.68 46.6213 134.428 44.7293 135.924 42.94C137.42 41.1507 139.415 39.7133 141.908 38.628C144.431 37.5427 147.144 37 150.048 37C154.067 37 157.029 38.188 158.936 40.564C160.843 42.94 161.796 45.976 161.796 49.672C161.796 53.016 161.224 56.316 160.08 59.572C158.965 62.7987 157.469 65.4387 155.592 67.492C153.715 69.5453 151.72 70.572 149.608 70.572ZM169.016 70.176C166.845 70.176 165.129 69.6187 163.868 68.504C162.606 67.3893 161.976 65.6293 161.976 63.224C161.976 61.2293 162.386 59.0147 163.208 56.58C164.029 54.1453 165.349 52.048 167.168 50.288C168.986 48.4987 171.274 47.604 174.032 47.604C177.786 47.604 179.664 49.9507 179.664 54.644V54.688C179.752 54.7173 179.913 54.732 180.148 54.732C181.116 54.732 182.23 54.4827 183.492 53.984C184.753 53.456 185.897 52.8253 186.924 52.092L187.32 53.28C186.469 54.1893 185.354 54.9667 183.976 55.612C182.626 56.228 181.145 56.668 179.532 56.932C179.297 59.6013 178.696 61.9333 177.728 63.928C176.76 65.9227 175.513 67.4627 173.988 68.548C172.462 69.6333 170.805 70.176 169.016 70.176ZM170.776 66.216C171.48 66.216 172.184 65.82 172.888 65.028C173.592 64.2067 174.208 63.1067 174.736 61.728C175.264 60.32 175.645 58.7653 175.88 57.064C175.088 56.888 174.692 56.272 174.692 55.216C174.692 54.0133 175.146 53.2213 176.056 52.84C175.997 51.872 175.85 51.212 175.616 50.86C175.381 50.4787 174.97 50.288 174.384 50.288C173.416 50.288 172.477 50.992 171.568 52.4C170.658 53.808 169.925 55.4947 169.368 57.46C168.81 59.4253 168.532 61.156 168.532 62.652C168.532 64.06 168.693 65.0133 169.016 65.512C169.338 65.9813 169.925 66.216 170.776 66.216ZM187.208 70.264C185.536 70.264 184.142 69.692 183.028 68.548C181.913 67.404 181.356 65.6147 181.356 63.18C181.356 61.0093 181.781 58.736 182.632 56.36C183.512 53.9547 184.802 51.9307 186.504 50.288C188.234 48.616 190.288 47.78 192.664 47.78C193.866 47.78 194.761 47.9853 195.348 48.396C195.934 48.8067 196.228 49.3493 196.228 50.024V50.2L198.384 40.08L204.896 39.2L199.836 62.96C199.718 63.4 199.66 63.8693 199.66 64.368C199.66 64.9547 199.792 65.38 200.056 65.644C200.349 65.8787 200.818 65.996 201.464 65.996C202.285 65.996 202.989 65.644 203.576 64.94C204.192 64.236 204.676 63.2973 205.028 62.124H206.876C205.086 67.3747 202.138 70 198.032 70C196.829 70 195.846 69.6773 195.084 69.032C194.35 68.3867 193.896 67.448 193.72 66.216C192.957 67.3893 192.033 68.3573 190.948 69.12C189.892 69.8827 188.645 70.264 187.208 70.264ZM190.068 65.996C190.772 65.996 191.476 65.6733 192.18 65.028C192.913 64.3827 193.412 63.488 193.676 62.344V62.124L195.832 52.048C195.568 51.0213 194.966 50.508 194.028 50.508C192.854 50.508 191.798 51.1973 190.86 52.576C189.921 53.9253 189.188 55.568 188.66 57.504C188.132 59.4107 187.868 61.0973 187.868 62.564C187.868 64.0307 188.073 64.9693 188.484 65.38C188.924 65.7907 189.452 65.996 190.068 65.996ZM210.325 70.264C208.653 70.264 207.26 69.692 206.145 68.548C205.03 67.404 204.473 65.6147 204.473 63.18C204.473 61.0093 204.898 58.736 205.749 56.36C206.629 53.9547 207.92 51.9307 209.621 50.288C211.352 48.616 213.405 47.78 215.781 47.78C216.984 47.78 217.878 47.9853 218.465 48.396C219.052 48.8067 219.345 49.3493 219.345 50.024V50.332L219.829 48H226.165L222.997 62.96C222.88 63.4 222.821 63.8693 222.821 64.368C222.821 64.9547 222.953 65.38 223.217 65.644C223.51 65.8787 223.98 65.996 224.625 65.996C225.036 65.996 225.358 65.9373 225.593 65.82C224.948 67.4627 224.332 68.6213 223.745 69.296C223.158 69.9413 222.308 70.264 221.193 70.264C219.99 70.264 219.008 69.912 218.245 69.208C217.512 68.4747 217.057 67.4627 216.881 66.172C215.092 68.9 212.906 70.264 210.325 70.264ZM213.185 65.996C213.918 65.996 214.637 65.6587 215.341 64.984C216.074 64.28 216.573 63.3267 216.837 62.124L218.949 52.18C218.949 51.7987 218.802 51.432 218.509 51.08C218.216 50.6987 217.761 50.508 217.145 50.508C215.972 50.508 214.916 51.1973 213.977 52.576C213.038 53.9253 212.305 55.568 211.777 57.504C211.249 59.4107 210.985 61.0973 210.985 62.564C210.985 64.0307 211.19 64.9693 211.601 65.38C212.041 65.7907 212.569 65.996 213.185 65.996Z" fill="white"/>
</g>
<defs>
<filter id="filter0_d_169:902" x="-45" y="36" width="450" height="78" filterUnits="userSpaceOnUse" color-interpolation-filters="sRGB">
<feFlood flood-opacity="0" result="BackgroundImageFix"/>
<feColorMatrix in="SourceAlpha" type="matrix" values="0 0 0 0 0 0 0 0 0 0 0 0 0 0 0 0 0 0 127 0" result="hardAlpha"/>
<feOffset dy="4"/>
<feGaussianBlur stdDeviation="2"/>
<feComposite in2="hardAlpha" operator="out"/>
<feColorMatrix type="matrix" values="0 0 0 0 0 0 0 0 0 0 0 0 0 0 0 0 0 0 0.25 0"/>
<feBlend mode="normal" in2="BackgroundImageFix" result="effect1_dropShadow_169:902"/>
<feBlend mode="normal" in="SourceGraphic" in2="effect1_dropShadow_169:902" result="shape"/>
</filter>
<filter id="filter1_d_169:902" x="63.6873" y="0" width="230.626" height="142" filterUnits="userSpaceOnUse" color-interpolation-filters="sRGB">
<feFlood flood-opacity="0" result="BackgroundImageFix"/>
<feColorMatrix in="SourceAlpha" type="matrix" values="0 0 0 0 0 0 0 0 0 0 0 0 0 0 0 0 0 0 127 0" result="hardAlpha"/>
<feMorphology radius="2" operator="dilate" in="SourceAlpha" result="effect1_dropShadow_169:902"/>
<feOffset dy="5"/>
<feGaussianBlur stdDeviation="19.5"/>
<feComposite in2="hardAlpha" operator="out"/>
<feColorMatrix type="matrix" values="0 0 0 0 1 0 0 0 0 0.741176 0 0 0 0 0.0588235 0 0 0 0.25 0"/>
<feBlend mode="normal" in2="BackgroundImageFix" result="effect1_dropShadow_169:902"/>
<feBlend mode="normal" in="SourceGraphic" in2="effect1_dropShadow_169:902" result="shape"/>
</filter>
<filter id="filter2_d_169:902" x="129.68" y="37" width="100.485" height="41.572" filterUnits="userSpaceOnUse" color-interpolation-filters="sRGB">
<feFlood flood-opacity="0" result="BackgroundImageFix"/>
<feColorMatrix in="SourceAlpha" type="matrix" values="0 0 0 0 0 0 0 0 0 0 0 0 0 0 0 0 0 0 127 0" result="hardAlpha"/>
<feOffset dy="4"/>
<feGaussianBlur stdDeviation="2"/>
<feComposite in2="hardAlpha" operator="out"/>
<feColorMatrix type="matrix" values="0 0 0 0 0 0 0 0 0 0 0 0 0 0 0 0 0 0 0.25 0"/>
<feBlend mode="normal" in2="BackgroundImageFix" result="effect1_dropShadow_169:902"/>
<feBlend mode="normal" in="SourceGraphic" in2="effect1_dropShadow_169:902" result="shape"/>
</filter>
</defs>
</svg>
